<?xml version="1.0" encoding="UTF-8" standalone="no"?>
<svg
   xmlns:dc="http://purl.org/dc/elements/1.1/"
   xmlns:cc="http://creativecommons.org/ns#"
   xmlns:rdf="http://www.w3.org/1999/02/22-rdf-syntax-ns#"
   xmlns:svg="http://www.w3.org/2000/svg"
   xmlns="http://www.w3.org/2000/svg"
   viewBox="0 0 468.41333 62.866669"
   height="62.866669"
   width="468.41333"
   xml:space="preserve"
   id="svg2"
   version="1.1"><metadata
     id="metadata8"><rdf:RDF><cc:Work
         rdf:about=""><dc:format>image/svg+xml</dc:format><dc:type
           rdf:resource="http://purl.org/dc/dcmitype/StillImage" /></cc:Work></rdf:RDF></metadata><defs
     id="defs6" /><g
     transform="matrix(1.3333333,0,0,-1.3333333,0,62.866667)"
     id="g10"><g
       transform="scale(0.1)"
       id="g12"><path
         id="path14"
         style="fill:#1f2328;fill-opacity:1;fill-rule:nonzero;stroke:none"
         d="m 2080.02,60.6055 c 61.85,0 81.02,42.6675 93.98,93.9965 h -29.05 c -40.19,0 -106.97,-6.809 -106.97,-60.5981 0,-22.2656 21.02,-33.3984 42.04,-33.3984 z m 81.02,-4.3242 h -1.24 C 2131.35,20.4102 2102.9,0 2057.14,0 c -57.48,0 -98.28,32.168 -98.28,90.8984 0,105.1286 117.46,113.1646 195.37,113.1646 h 29.06 c 2.47,8.671 2.47,17.941 2.47,27.218 0,32.137 -34.62,41.414 -63.68,41.414 -36.49,0 -71.74,-9.277 -104.51,-24.726 l 11.74,66.164 c 35.25,12.351 71.12,19.168 108.23,19.168 63.68,0 123.66,-23.496 123.66,-98.309 0,-42.668 -31.53,-167.5897 -38.95,-227.57012 h -69.88 l 8.67,48.85942" /><path
         id="path16"
         style="fill:#1f2328;fill-opacity:1;fill-rule:nonzero;stroke:none"
         d="m 12.9805,326.172 h 59.9883 l 14.2187,65.539 89.0425,29.07 -20.41,-94.609 h 74.211 L 217.043,265.566 H 142.832 L 112.539,126.438 c -1.855,-7.415 -3.711,-18.555 -3.711,-30.9107 0,-19.1796 12.988,-30.9179 31.543,-30.9179 14.844,0 29.68,3.0859 40.195,7.4219 L 166.34,7.71484 C 152.109,4.62891 136.035,0.292969 121.816,0.292969 c -56.2691,0 -95.8472,22.257831 -95.8472,83.488331 0,24.7147 4.9492,48.8357 10.5156,74.1797 L 59.9805,265.566 H 0 l 12.9805,60.606" /><path
         id="path18"
         style="fill:#1f2328;fill-opacity:1;fill-rule:nonzero;stroke:none"
         d="m 294.355,463.449 h 82.852 l -17.305,-79.16 h -82.859 z m -30.3,-137.277 h 82.859 L 278.898,7.71484 h -82.863 l 68.02,318.45716" /><path
         id="path20"
         style="fill:#1f2328;fill-opacity:1;fill-rule:nonzero;stroke:none"
         d="m 597.148,253.195 c -16.093,10.516 -37.722,16.082 -60.605,16.082 -66.172,0 -103.27,-61.836 -103.27,-121.824 0,-41.406 13.602,-82.8436 70.497,-82.8436 20.41,0 45.761,5.5664 67.394,16.0742 L 561.895,15.1289 C 536.543,2.77344 509.336,0.292969 482.129,0.292969 c -82.246,0 -135.43,55.019531 -135.43,137.266031 0,111.308 73.594,196.015 187.989,196.015 30.917,0 60.597,-5.566 82.871,-12.351 l -20.411,-68.028" /><path
         id="path22"
         style="fill:#1f2328;fill-opacity:1;fill-rule:nonzero;stroke:none"
         d="m 688.02,471.484 h 82.859 L 715.84,210.527 h 1.25 L 832.715,326.172 H 940.313 L 787.578,180.852 883.418,7.71484 H 790.051 L 707.805,176.516 h -1.242 L 670.703,7.71484 H 589.699 L 688.02,471.484" /><path
         id="path24"
         style="fill:#1f2328;fill-opacity:1;fill-rule:nonzero;stroke:none"
         d="m 1239,326.172 h 59.99 l 14.21,65.539 89.05,29.07 -20.4,-94.609 h 74.21 l -12.99,-60.606 h -74.22 l -30.29,-139.128 c -1.86,-7.415 -3.72,-18.555 -3.72,-30.9107 0,-19.1796 12.99,-30.9179 31.55,-30.9179 14.84,0 29.69,3.0859 40.18,7.4219 L 1392.34,7.71484 c -14.2,-3.08593 -30.29,-7.421871 -44.51,-7.421871 -56.27,0 -95.85,22.257831 -95.85,83.488331 0,24.7147 4.95,48.8357 10.52,74.1797 l 23.5,107.605 h -59.98 l 12.98,60.606" /><path
         id="path26"
         style="fill:#1f2328;fill-opacity:1;fill-rule:nonzero;stroke:none"
         d="m 1211.29,212.383 c 0,81.015 -51.94,121.191 -130.47,121.191 -104.511,0 -181.191,-95.234 -181.191,-194.16 0,-94.6093 61.836,-139.121031 153.361,-139.121031 34,0 69.26,8.027341 101.41,17.921831 l 10.52,65.5665 c -30.93,-14.2383 -63.71,-22.8907 -97.71,-22.8907 -53,0 -83.968,18.8282 -87.952,68.8944 h -0.067 c -0.148,2.91 -0.421,5.742 -0.421,8.801 0,0.586 0.039,1.18 0.039,1.766 0,0.312 -0.02,0.597 -0.02,0.929 h 0.059 c 0.371,21.805 5.156,43.321 13.468,63.172 v 0 c 15.914,40.527 38.434,68.527 87.254,68.527 34.63,0 52.57,-19.16 52.57,-53.175 0,-7.422 -0.63,-14.219 -1.86,-21.641 h -113.37 c -7.36,-25.019 -8.65,-41.797 -8.8,-56.883 h 195.14 c 4.93,23.496 8.04,46.992 8.04,71.102" /><path
         id="path28"
         style="fill:#1f2328;fill-opacity:1;fill-rule:nonzero;stroke:none"
         d="m 1491.8,290.918 c 2.47,12.363 4.94,25.352 6.8,35.254 h 77.3 l -7.42,-42.676 h 1.23 c 22.26,32.774 58.74,50.078 97.69,50.078 37.73,0 76.68,-22.254 81.01,-60.594 h 1.24 c 21.02,41.434 67.4,60.594 111.92,60.594 47.61,0 88.42,-38.945 88.42,-87.187 0,-28.438 -7.41,-60.606 -14.21,-86.563 L 1902.38,7.71484 h -82.86 l 33.4,155.21516 c 4.32,19.16 10.51,48.847 10.51,68.008 0,23.496 -17.93,38.339 -38.96,38.339 -57.52,0 -71.73,-66.777 -82.24,-110.078 L 1709.45,7.71484 H 1626.6 L 1659.99,162.93 c 4.33,19.16 10.52,48.847 10.52,68.008 0,23.496 -17.94,38.339 -38.97,38.339 -56.27,0 -71.73,-67.402 -82.24,-110.078 L 1516.52,7.71484 h -82.85 L 1491.8,290.918" /><path
         id="path30"
         style="fill:#1f2328;fill-opacity:1;fill-rule:nonzero;stroke:none"
         d="m 2507.34,261.328 c -8.9,4.844 -31.78,11.652 -55.28,11.652 -24.73,0 -55.64,-6.808 -55.64,-32.14 0,-40.195 107.58,-55.059 107.58,-132.957 0,-82.8635 -72.34,-107.590031 -143.45,-107.590031 -33.39,0 -66.79,4.933591 -97.09,19.160131 l 17.94,66.1641 c 23.49,-12.9805 46.99,-24.7266 79.15,-24.7266 27.83,0 56.89,9.2852 56.89,35.2344 0,51.328 -107.59,56.297 -107.59,136.043 0,74.824 72.34,101.406 137.9,101.406 30.29,0 61.21,-5.566 77.53,-9.785 l -17.94,-62.461" /><path
         id="path32"
         style="fill:#1f2328;fill-opacity:1;fill-rule:nonzero;stroke:none"
         d="m 2560.26,326.172 h 59.99 l 14.22,65.539 89.06,29.07 -20.41,-94.609 h 74.2 l -12.99,-60.606 h -74.21 l -30.29,-139.128 c -1.86,-7.415 -3.71,-18.555 -3.71,-30.9107 0,-19.1796 12.99,-30.9179 31.54,-30.9179 14.83,0 29.67,3.0859 40.18,7.4219 L 2713.63,7.71484 c -14.22,-3.08593 -30.3,-7.421871 -44.52,-7.421871 -56.28,0 -95.85,22.257831 -95.85,83.488331 0,24.7147 4.95,48.8357 10.5,74.1797 l 23.52,107.605 h -59.98 l 12.96,60.606" /><path
         id="path34"
         style="fill:#1f2328;fill-opacity:1;fill-rule:nonzero;stroke:none"
         d="m 3122.05,283.496 c 2.47,13.606 4.95,27.824 7.42,42.676 h 79.16 l -11.14,-60 h 1.25 c 14.84,34.641 55.65,67.402 93.99,67.402 10.51,0 21.65,-0.594 31.53,-3.086 l -17.31,-81.004 c -9.27,3.094 -21.03,4.95 -31.53,4.95 -58.75,0 -87.2,-52.559 -97.7,-103.887 L 3148.03,7.71484 h -82.86 l 56.88,275.78116" /><path
         id="path36"
         style="fill:#1f2328;fill-opacity:1;fill-rule:nonzero;stroke:none"
         d="m 3064.55,212.383 c 0,81.015 -51.94,121.191 -130.48,121.191 -104.49,0 -181.18,-95.234 -181.18,-194.16 0,-94.6093 61.83,-139.121031 153.36,-139.121031 34,0 69.26,8.027341 101.41,17.921831 l 10.51,65.5665 c -30.92,-14.2383 -63.69,-22.8907 -97.69,-22.8907 -53.02,0 -83.98,18.8282 -87.97,68.8944 h -0.06 c -0.14,2.91 -0.42,5.742 -0.42,8.801 0,0.586 0.03,1.18 0.05,1.766 0,0.312 -0.03,0.597 -0.03,0.929 h 0.06 c 0.36,21.805 5.15,43.321 13.47,63.172 v 0 c 15.91,40.527 38.42,68.527 87.25,68.527 34.62,0 52.56,-19.16 52.56,-53.175 0,-7.422 -0.61,-14.219 -1.84,-21.641 h -113.39 c -7.35,-25.019 -8.65,-41.797 -8.79,-56.883 h 195.14 c 4.95,23.496 8.04,46.992 8.04,71.102" /><path
         id="path38"
         style="fill:#1f2328;fill-opacity:1;fill-rule:nonzero;stroke:none"
         d="m 3427.8,279.512 h 16.23 c 10.52,0 17.33,2.187 17.33,13.086 0,9.511 -8.55,12.304 -17.33,12.304 h -16.23 z m -13.68,36.113 h 32.11 c 19.28,0 28.77,-7.773 28.77,-23.652 0,-13.457 -8.51,-23.184 -21.66,-23.184 l 23.89,-37.109 h -14.53 l -23.44,37.109 H 3427.8 V 231.68 h -13.68 z m 27.59,-102.969 c 32.88,0 57.7,26.594 57.7,60.879 0,34.317 -24.82,60.918 -57.7,60.918 -33.32,0 -58.18,-26.601 -58.18,-60.918 0,-34.285 24.86,-60.879 58.18,-60.879 z m -0.22,132.52 c 39.42,0 71.62,-32.11 71.62,-71.641 0,-39.433 -32.2,-71.531 -71.62,-71.531 -39.46,0 -71.66,32.098 -71.66,71.531 0,39.531 32.2,71.641 71.66,71.641" /></g></g></svg>